<?xml version="1.0" encoding="UTF-8"?>
<svg id="Layer_2" data-name="Layer 2" xmlns="http://www.w3.org/2000/svg" viewBox="0 0 592 426.35">
  <defs>
    <style>
      .cls-1 {
        fill: #fff;
      }
    </style>
  </defs>
  <g id="Layer_1-2" data-name="Layer 1">
    <path class="cls-1" d="M492.51,315.59v15.08h84.02c-3.27,48.93-35.64,80.49-83.84,80.62-47.56-.09-86.28-40.86-86.29-91.78.01-50.36,38.75-91.41,86.29-91.5,36.73.04,66.16,20.78,79.49,54.69l.31.81.21.58h15.83l-.97-2.87c-14.12-41.86-50.32-68.29-94.82-68.27,0,.03,0,0-.03,0-.02-.02-.08-.03-.21,0-40.58.09-75.52,25.38-91.64,61.66V0h-14.58v267.36c-16.56-32.33-48.88-54.4-86.72-54.4-48.8,0-89.5,36.56-99.12,85.12-9.64-48.55-50.33-85.12-99.13-85.12C45.33,212.96,0,261.06,0,320.18s45.33,105.63,101.3,105.63c37.84,0,70.16-21.68,86.72-53.6v48.87h14.58v-70.26c12.59,43.4,51.21,75,96.96,75s83.67-31.03,96.62-73.81c13.08,43.09,51.31,74.34,96.51,74.34h.09c29.51,0,54.4-10.34,71.85-28.46,17.28-17.93,27.19-43.43,27.37-73.71h0v-8.58h-99.48ZM101.3,411.23c-47.69,0-86.71-40.99-86.71-91.05s39.02-92.24,86.71-92.24,86.72,41.39,86.72,92.24-39.02,91.05-86.72,91.05ZM299.55,411.23c-47.69,0-86.71-40.99-86.71-91.05s39.02-92.24,86.71-92.24,86.72,41.39,86.72,92.24-39.02,91.05-86.72,91.05Z"/>
  </g>
</svg>